# xmcd
#
# Track frame offsets:
#   150
#   15450
#   30664
#   47979
#   60547
#   77133
#   92904
#   104163
#   117743
#   129170
#   144519
#   161498
#   173306
#
# Disc length: 2573 seconds
#
# Revision: 0
# Processed by: cddbd v1.5.2PL0 Copyright (c) Steve Scherf et al.
# Submitted via: uFREEDB ActiveX Control 1.5
#
DISCID=a80a0b0d
DTITLE=Rei do Vale e Tocantins - vol.3
DYEAR=1900
DGENRE=Country
TTITLE0=a loira
TTITLE1=saudade matadeira
TTITLE2=rei das festas
TTITLE3=pagode quente
TTITLE4=carro de boi
TTITLE5=nostalgia
TTITLE6=nativo
TTITLE7=minha terra
TTITLE8=vazia
TTITLE9=valentin
TTITLE10=pantanal
TTITLE11=brasil
TTITLE12=tunel do tempo
EXTD=
EXTT0=
EXTT1=
EXTT2=
EXTT3=
EXTT4=
EXTT5=
EXTT6=
EXTT7=
EXTT8=
EXTT9=
EXTT10=
EXTT11=
EXTT12=
PLAYORDER=
